# xmcd
#
# Track frame offsets: 
#        150
#        27441
#        47285
#        83580
#        108412
#        121219
#        141326
#        165591
#        185496
#        199125
#        216147
#        248719
#
# Disc length: 3457 seconds
#
# Revision: 0
# Processed by: cddbd v1.5.2PL0 Copyright (c) Steve Scherf et al.
# Submitted via: ExactAudioCopy v0.95b3
#
DISCID=9e0d7f0c
DTITLE=Jimi Hendrix  - Rockin' The USA Vol.2 -  Disc 6
DYEAR=1900
DGENRE=
TTITLE0=Stone Free
TTITLE1=Fire
TTITLE2=Red House
TTITLE3=Message To Love
TTITLE4=Lover Man
TTITLE5=All Along The Watchtower
TTITLE6=Foxy Lady
TTITLE7=Ezy Rider
TTITLE8=Star Spangled Banner
TTITLE9=Purple Haze
TTITLE10=Voodoo Child (Slight Return)
TTITLE11=Outro
EXTD=
EXTT0=
EXTT1=
EXTT2=
EXTT3=
EXTT4=
EXTT5=
EXTT6=
EXTT7=
EXTT8=
EXTT9=
EXTT10=
EXTT11=
PLAYORDER=
